A splinter group of Roman soldiers fight for their lives behind enemy lines after their legion is decimated in a devastating guerrilla attack.
 
http://www.imdb.com/title/tt1020558/

Subtitles (srt) : Dutch, English.

Covers included.

Groot Brittanië, het jaar 117. Quintus Dias, de enige overlevende van een aanval van een guerilla groepering op zijn familie, trekt samen met Generaal Virilus' legendarische 'Ninth Legion' leger door het land, om een aanval voor te bereiden op de groepering en om hun leider Gorlacon te vernietigen.
 
http://www.moviemeter.nl/film/56751

Ondertitels (srt) : Engels, Nederlands.

Hoesjes bijgevoegd.

General
Complete name                    : Centurion-AC3-XviD-DVDRip[Eng]2010 2Lions-Team\Centurion-AC3-XviD-DVDRip[Eng]2010 2Lions-Team.avi
Format                           : AVI
Format/Info                      : Audio Video Interleave
File size                        : 1.36 GiB
Duration                         : 1h 33mn
Overall bit rate                 : 2 085 Kbps
Writing application              : VirtualDubMod 1.5.4.1 (build 2178/release)
Writing library                  : VirtualDubMod build 2178/release
Source                           : Centurion LiMiTED PAL DVDR-ALLiANCE 

Video
ID                               : 0
Format                           : MPEG-4 Visual
Format profile                   : Simple@L3
Format settings, BVOP            : No
Format settings, QPel            : No
Format settings, GMC             : No warppoints
Format settings, Matrix          : Default (H.263)
Codec ID                         : XVID
Codec ID/Hint                    : XviD
Duration                         : 1h 33mn
Bit rate                         : 1 627 Kbps
Width                            : 720 pixels
Height                           : 304 pixels
Display aspect ratio             : 2.35:1
Frame rate                       : 25.000 fps
Resolution                       : 8 bits
Colorimetry                      : 4:2:0
Scan type                        : Progressive
Bits/(Pixel*Frame)               : 0.297
Stream size                      : 1.06 GiB (78%)
Writing library                  : XviD 1.1.2 (UTC 2006-11-01)

Audio
ID                               : 1
Format                           : AC-3
Format/Info                      : Audio Coding 3
Format_Settings_ModeExtension    : CM (complete main)
Codec ID                         : 2000
Duration                         : 1h 33mn
Bit rate mode                    : Constant
Bit rate                         : 448 Kbps
Channel(s)                       : 6 channels
Channel positions                : Front: L C R, Side: L R, LFE
Sampling rate                    : 48.0 KHz
Stream size                      : 300 MiB (21%)
Alignment                        : Split accross interleaves
Interleave, duration             : 40 ms (1.00 video frame)
Interleave, preload duration     : 500 ms

Brought to you by 
2Lions Team

meer zien??
                   
Kom dan eens kijken op ons NIEUWE forum 
            
http://www.2lions-site.nl/

2Lions the site to be for all your Dutch MOVIES and more

******************************************

DON T HIT AND RUN Niet gelijk afhaken als de FILM binnen is blijf seeden. 

Don`t quit after you finished the download, but keep seeding

There are fake torrents from uploaders who use our team name.
Those are not ours, or members from our team.
We 2Lions-Team are not responsible for the fake posts on our name

Wij 2Lions-Team zijn niet verantwoordelijk voor die zieke FAKE posten die op onze naam worden gedaan

Please check our site !!!

to the fakers , get a life !!!